<svg version="1.1" xmlns="http://www.w3.org/2000/svg" style="display: block;" viewBox="0 0 2048 2048" width="996" height="996" preserveAspectRatio="none">
<path transform="translate(0,0)" fill="rgb(39,38,35)" d="M 1012.72 107.451 C 1014.42 107.365 1013.24 107.397 1014.98 107.428 C 1074.43 108.475 1129.57 130.831 1170.18 175.08 C 1212.42 221.103 1226.62 274.103 1224.3 335.435 L 1380.99 335.453 C 1419.14 335.461 1472.56 333.038 1507.92 341.271 C 1542.8 349.273 1574.91 366.441 1600.93 391.001 C 1668.12 455.01 1658.91 528.578 1658.84 611.978 L 1658.8 791.377 L 1658.82 1344.56 L 1658.83 1602.34 L 1658.83 1673.52 C 1658.84 1695.85 1659.69 1720.33 1655.87 1742.25 C 1646.25 1793.93 1621.12 1839.3 1578.64 1870.51 C 1522.73 1911.6 1479.57 1912.14 1414.51 1912.1 L 1328.58 1912.04 L 1018.5 1912.06 L 701.446 1912.05 L 613.588 1912.12 C 585.581 1912.14 559.715 1913.57 532.142 1907.59 C 494.121 1899.57 459.225 1880.74 431.646 1853.36 C 404.499 1826.31 385.709 1792.02 377.521 1754.59 C 371.629 1727.45 372.973 1698.6 372.971 1670.84 L 373.07 1582.72 L 372.864 1264.26 L 373.043 739.186 L 372.886 590.819 C 372.908 559.687 371.477 522.196 376.536 491.908 C 382.362 457.025 404.179 417.531 429.246 392.482 C 453.929 368.283 484.493 350.936 517.924 342.151 C 554.001 332.884 609.457 335.493 648.327 335.48 L 805.118 335.569 C 807.028 322.504 805.66 307.062 807.144 293.524 C 816.931 204.215 887.528 128.276 975.836 111.682 C 987.708 109.451 1000.46 108.19 1012.72 107.451 z M 1385.75 622.933 C 1231.08 621.103 1073.01 622.723 918.131 622.724 L 737.898 622.732 C 711.051 622.734 673.696 621.557 647.953 622.889 L 648.01 464.158 C 628.187 464.871 608.475 464.386 588.673 464.452 C 583.237 464.47 568.477 463.847 563.747 464.415 C 544.351 466.057 530.704 473.358 517.789 488.101 C 510.956 495.902 503.487 510.884 503.088 521.07 C 502.114 545.915 502.44 571.634 502.442 596.535 L 502.494 734.59 L 502.471 1171.15 L 502.468 1545.6 L 502.436 1659.84 C 502.43 1681.02 502.033 1702.43 503.269 1723.56 C 504.173 1734.45 510.361 1745.85 516.568 1754.58 C 527.114 1769.41 549.253 1782.63 567.796 1783.15 C 591.19 1783.81 615.853 1783.74 639.43 1783.59 L 760.009 1783.19 L 1116.93 1783.15 L 1347.01 1783.43 L 1416.81 1783.32 C 1453.49 1783.54 1488.11 1788.04 1513.65 1755.04 C 1526.25 1738.76 1529.11 1724.54 1529 1704.27 L 1529.05 886.498 L 1529.05 639.082 L 1529.1 565.826 C 1529.11 552.481 1530.46 534.47 1528.28 521.787 C 1520.96 479.324 1490.57 464.137 1452.54 464.188 L 1385.25 464.725 C 1386.64 517.346 1384.94 570.386 1385.75 622.933 z M 1009.59 237.367 C 974.736 241.101 946.374 263.45 938.034 298.835 C 933.573 317.762 936.736 339.988 935.679 359.415 C 935.311 394.522 936.108 429.906 935.537 464.978 C 924.233 463.805 908.302 464.315 896.435 464.317 L 809.714 464.571 C 799.885 464.53 785.863 465.134 776.428 464.487 C 773.67 476.316 773.95 483.518 774.151 495.696 C 784.014 494.906 796.165 495.552 806.321 495.682 C 821.545 495.813 836.77 495.852 851.995 495.8 L 1023.5 495.814 L 1258.81 495.849 L 1258.71 464.568 C 1225.51 464.289 1192.31 464.249 1159.12 464.447 C 1145.55 464.424 1108.39 463.688 1096.19 465.225 L 1096.39 362.914 C 1096.37 344.708 1097.76 312.761 1093.71 296.648 C 1090.19 282.952 1083.04 270.464 1073 260.508 C 1057.78 245.284 1037.07 236.838 1015.55 237.08 C 1013.42 237.093 1011.72 237.17 1009.59 237.367 z"/>
<path transform="translate(0,0)" fill="rgb(39,38,35)" d="M 714.5 1165.55 C 764.136 1163.5 825.406 1165.19 875.729 1165.18 L 1190.17 1165.14 L 1284.01 1165.15 C 1300.94 1165.19 1319.7 1165.97 1336.37 1165.04 L 1336.32 1243.52 C 1336.32 1258.7 1335.91 1278.73 1337.09 1293.5 L 1319.25 1293.69 L 897.489 1293.67 L 769.43 1293.67 C 745.827 1293.63 718.472 1292.92 695.128 1293.79 C 695.578 1251.52 695.225 1208.36 695.137 1166.05 L 714.5 1165.55 z"/>
<path transform="translate(0,0)" fill="rgb(39,38,35)" d="M 697.068 1379.31 C 721.238 1378.13 751.098 1378.92 775.536 1378.98 L 908.818 1379.04 L 1334.82 1379.12 C 1334.87 1418.21 1336.26 1465.57 1334.7 1503.95 C 1332.85 1505.56 1332.55 1504.92 1329.25 1504.84 C 1312.95 1503.77 1292.22 1505.3 1275.5 1505.16 L 1135.86 1504.87 C 989.542 1505.41 843.227 1505.1 696.917 1503.95 L 697.068 1379.31 z"/>
<path transform="translate(0,0)" fill="rgb(39,38,35)" d="M 1298.03 942.2 C 1305.35 942.196 1330.25 942.977 1335.84 940.974 L 1337.33 941.925 C 1338.33 949.808 1337.98 957.34 1338.07 965.241 C 1338.46 998.901 1337.35 1032.85 1338.34 1066.48 L 1069 1066.38 C 1035.72 1066.34 998.214 1065.47 965.265 1066.04 L 963.209 1065.9 C 926.378 1067.15 887.107 1066.49 850.06 1066.5 C 800.383 1066.69 750.705 1066.55 701.03 1066.08 C 698.79 1066.12 698.432 1066.02 696.208 1065.62 C 694.98 1061.14 695.485 1048.35 695.348 1042.7 C 694.609 1009.15 694.57 975.591 695.232 942.041 C 721.142 941.653 747.565 941.719 773.51 941.966 C 948.122 943.63 1123.53 939.669 1298.03 942.2 z"/>
<path transform="translate(0,0)" fill="rgb(191,70,62)" d="M 1298.03 942.2 C 1305.35 942.196 1330.25 942.977 1335.84 940.974 L 1337.33 941.925 C 1338.33 949.808 1337.98 957.34 1338.07 965.241 C 1338.46 998.901 1337.35 1032.85 1338.34 1066.48 L 1069 1066.38 C 1035.72 1066.34 998.214 1065.47 965.265 1066.04 C 979.719 1062.47 996.865 1063.61 1011.91 1063.63 L 1079.07 1063.72 L 1335.04 1063.77 C 1335.83 1024.45 1335.37 982.758 1335.12 943.363 C 1327.86 943.569 1303.11 944.972 1298.03 942.2 z"/>
<path transform="translate(0,0)" fill="rgb(191,70,62)" d="M 701.03 1066.08 C 710.392 1062.32 742.49 1063.66 754.361 1063.66 L 836.005 1063.64 L 907.155 1063.66 C 927.786 1063.67 942.725 1062.69 963.209 1065.9 C 926.378 1067.15 887.107 1066.49 850.06 1066.5 C 800.383 1066.69 750.705 1066.55 701.03 1066.08 z"/>
</svg>