<svg version="1.1" xmlns="http://www.w3.org/2000/svg" style="display: block;" viewBox="0 0 2048 2048" width="886" height="886" preserveAspectRatio="none">
<path transform="translate(0,0)" fill="rgb(39,38,35)" d="M 1024.81 7.4261 C 1090.51 9.682 1144.42 29.2203 1192.3 75.7209 C 1227.29 110.104 1250.25 154.856 1257.79 203.331 C 1260.56 222.306 1260.83 244.757 1261.06 263.902 L 1435.1 263.906 C 1478.62 263.901 1540.69 260.99 1580.91 270.662 C 1620.29 279.964 1656.46 299.669 1685.62 327.719 C 1727.98 368.964 1749.18 426.329 1749.66 484.935 L 1749.04 1414.06 L 1749.09 1691.43 L 1749.1 1770.41 C 1749.09 1796.44 1750.1 1821.57 1745.52 1847.41 C 1728.68 1942.49 1657.18 2014.11 1562.44 2032.1 C 1532.59 2037.76 1505.45 2036.2 1475.67 2036.19 L 1375.6 2036.14 L 1005.5 2036.15 L 667.229 2036.14 L 572.568 2036.21 C 541.802 2036.23 513.2 2037.89 483.021 2031.21 C 438.376 2021.33 401.691 2001.88 369.166 1969.64 C 336.667 1937.16 314.987 1895.44 307.087 1850.17 C 301.617 1816.89 304.052 1758.35 303.87 1722.64 L 303.897 1453.74 L 303.588 518.143 C 303.214 462.115 303.841 423.556 332.727 373.361 C 373.022 303.343 444.984 264.318 525.367 263.939 C 556.006 263.795 587.273 263.9 618.195 263.915 L 789.803 263.941 C 790.734 246.188 789.895 227.113 792.536 209.726 C 802.786 142.256 841.834 82.3686 899.157 45.5279 C 939.32 19.7158 978.061 9.65994 1024.81 7.4261 z M 1442.09 586.967 C 1379.78 586.242 1316.68 586.75 1254.3 586.741 L 909.861 586.766 L 711.23 586.767 C 682.773 586.766 640.465 585.402 612.821 586.954 L 612.931 408.698 C 590.778 409.021 568.622 409.089 546.468 408.904 C 536.672 408.883 521.123 408.39 511.797 409.269 C 475.659 416.788 449.991 444.273 449.425 481.946 C 448.881 518.105 449.176 554.27 449.203 590.435 L 449.222 794.84 L 449.201 1423.61 L 449.211 1709.74 L 449.198 1779.59 C 449.171 1794.56 447.955 1815.85 451.143 1830.45 C 455.514 1850.49 470.49 1868.81 487.728 1879.57 C 513.361 1895.56 531.646 1890.85 559.923 1891.42 C 618.068 1892.59 676.299 1891.61 734.5 1891.37 L 1138 1891.35 L 1393.48 1891.58 L 1476.59 1891.48 C 1495.92 1891.49 1523.49 1893.4 1541.08 1888.9 C 1562.52 1883.6 1580.89 1869.82 1591.97 1850.71 C 1604.07 1830.25 1603.36 1814.13 1603.21 1791.24 L 1603.23 879.649 L 1603.28 608.489 L 1603.35 523.937 C 1603.38 487.866 1608.35 456.946 1580.29 429.638 C 1555.84 405.851 1530.79 408.406 1498.97 408.834 C 1480.32 408.92 1460.43 409.206 1441.82 409.01 L 1442.09 586.967 z M 754.946 443.866 C 783.658 443.255 815.572 443.997 844.538 444.004 L 1034.5 444.015 L 1299.37 444.025 L 1299.18 408.965 L 1177.39 408.932 C 1163.36 408.946 1129.78 408.124 1116.67 409.55 C 1117.45 375.288 1116.87 339.094 1117.01 304.704 C 1117.09 283.582 1118.47 240.407 1114.24 222.104 C 1110.69 206.37 1102.85 191.925 1091.6 180.369 C 1074.8 163.013 1046.77 151.266 1022.5 153.423 C 995.075 155.417 977.345 163.914 958.596 184.361 C 929.501 216.092 936.194 263.287 936.158 303.896 L 936.125 409.097 C 917.046 408.696 757.896 408.243 755.519 410.214 C 755.034 420.809 754.608 433.201 754.946 443.866 z"/>
<path transform="translate(0,0)" fill="rgb(39,38,35)" d="M 672.757 1197.6 C 693.299 1195.7 732.538 1196.8 754.523 1196.82 L 905.303 1196.81 L 1386.88 1197.05 C 1386.8 1244.49 1386.79 1291.92 1387.05 1339.36 C 1386.69 1339.82 1386.34 1340.28 1385.98 1340.74 L 1381.25 1340.87 C 1306.5 1341.68 1230.35 1340.96 1155.48 1340.96 L 665.965 1340.98 L 665.926 1251.61 C 665.899 1235.54 665.314 1214.82 666.308 1199.11 C 668.276 1197.22 669.193 1197.85 672.757 1197.6 z"/>
<path transform="translate(0,0)" fill="rgb(39,38,35)" d="M 668.059 1437.31 C 695.15 1435.97 727.836 1436.85 755.295 1436.93 L 903.656 1437.06 L 1384.92 1437.07 C 1384.93 1452.43 1386.2 1574.98 1383.98 1578.7 L 1380.93 1578.36 C 1347.94 1576.96 1314.57 1580.1 1281.31 1578.01 C 1268.98 1577.24 1252.44 1578.82 1239.33 1578.75 L 853.471 1578.03 L 727.724 1578.08 C 709.953 1577.97 685.097 1578.56 667.905 1577.12 L 668.059 1437.31 z"/>
<path transform="translate(0,0)" fill="rgb(39,38,35)" d="M 1386.49 945.189 L 1387.62 945.145 C 1388.64 948.311 1389.2 1076.92 1388.19 1083.9 C 1378.71 1087.43 1279.86 1085.7 1260.85 1085.69 L 971.464 1085.05 L 967.03 1084.9 C 896.454 1088.24 823.381 1084.14 752.56 1085.7 C 726.822 1086.27 699.512 1085.97 673.843 1084.99 C 670.173 1084.97 668.633 1085.73 666.703 1083.87 C 665.536 1076.02 666.27 1057.59 666.197 1048.62 C 664.431 1024.62 665.141 970.511 666.058 945.883 L 1172.47 945.846 L 1316.47 945.89 C 1332.41 945.893 1373.05 946.885 1386.49 945.189 z"/>
<path transform="translate(0,0)" fill="rgb(108,62,52)" d="M 666.058 945.883 L 1172.47 945.846 L 1316.47 945.89 C 1332.41 945.893 1373.05 946.885 1386.49 945.189 C 1385.11 952.897 1385.82 978.951 1385.84 988.465 C 1386 1019.95 1385.97 1051.44 1385.73 1082.93 L 1367.46 1082.72 C 1373.13 1081.42 1379 1081.75 1384.84 1081.8 C 1385.22 1037.05 1385.26 992.293 1384.96 947.54 C 1371.14 948.828 1350.96 947.51 1336.63 947.633 C 1293.21 948.045 1249.79 948.155 1206.36 947.964 L 829.949 947.955 L 726.844 947.949 C 712.428 947.951 682.094 947.084 669.684 949.388 C 663.68 955.655 670.703 1032.27 666.197 1048.62 C 664.431 1024.62 665.141 970.511 666.058 945.883 z"/>
<path transform="translate(0,0)" fill="rgb(208,75,58)" d="M 1386.49 945.189 L 1387.62 945.145 C 1388.64 948.311 1389.2 1076.92 1388.19 1083.9 C 1378.71 1087.43 1279.86 1085.7 1260.85 1085.69 L 971.464 1085.05 C 982.544 1080.43 1033.04 1082.38 1047 1082.42 L 1144.4 1082.4 C 1217.24 1082.39 1295.12 1081.07 1367.46 1082.72 L 1385.73 1082.93 C 1385.97 1051.44 1386 1019.95 1385.84 988.465 C 1385.82 978.951 1385.11 952.897 1386.49 945.189 z"/>
<path transform="translate(0,0)" fill="rgb(208,75,58)" d="M 673.843 1084.99 C 682.626 1080.9 724.193 1082.36 736.311 1082.36 L 836.948 1082.36 L 909.379 1082.37 C 927.194 1082.38 950.081 1081.3 967.03 1084.9 C 896.454 1088.24 823.381 1084.14 752.56 1085.7 C 726.822 1086.27 699.512 1085.97 673.843 1084.99 z"/>
</svg>