<?xml version="1.0" encoding="UTF-8" standalone="no"?>
<!DOCTYPE svg PUBLIC "-//W3C//DTD SVG 1.1//EN" "http://www.w3.org/Graphics/SVG/1.1/DTD/svg11.dtd">
<svg width="100%" height="100%" viewBox="0 0 886 886" version="1.1" xmlns="http://www.w3.org/2000/svg" xmlns:xlink="http://www.w3.org/1999/xlink" xml:space="preserve" xmlns:serif="http://www.serif.com/" style="fill-rule:evenodd;clip-rule:evenodd;stroke-linejoin:round;stroke-miterlimit:2;">
    <g transform="matrix(0.432617,0,0,0.432617,-4.91829e-14,-4.91829e-14)">
        <path d="M1024.81,7.426C1090.51,9.682 1144.42,29.22 1192.3,75.721C1227.29,110.104 1250.25,154.856 1257.79,203.331C1260.56,222.306 1260.83,244.757 1261.06,263.902L1435.1,263.906C1478.62,263.901 1540.69,260.99 1580.91,270.662C1620.29,279.964 1656.46,299.669 1685.62,327.719C1727.98,368.964 1749.18,426.329 1749.66,484.935L1749.04,1414.06L1749.09,1691.43L1749.1,1770.41C1749.09,1796.44 1750.1,1821.57 1745.52,1847.41C1728.68,1942.49 1657.18,2014.11 1562.44,2032.1C1532.59,2037.76 1505.45,2036.2 1475.67,2036.19L1375.6,2036.14L1005.5,2036.15L667.229,2036.14L572.568,2036.21C541.802,2036.23 513.2,2037.89 483.021,2031.21C438.376,2021.33 401.691,2001.88 369.166,1969.64C336.667,1937.16 314.987,1895.44 307.087,1850.17C301.617,1816.89 304.052,1758.35 303.87,1722.64L303.897,1453.74L303.588,518.143C303.214,462.115 303.841,423.556 332.727,373.361C373.022,303.343 444.984,264.318 525.367,263.939C556.006,263.795 587.273,263.9 618.195,263.915L789.803,263.941C790.734,246.188 789.895,227.113 792.536,209.726C802.786,142.256 841.834,82.369 899.157,45.528C939.32,19.716 978.061,9.66 1024.81,7.426ZM1442.09,586.967C1379.78,586.242 1316.68,586.75 1254.3,586.741L909.861,586.766L711.23,586.767C682.773,586.766 640.465,585.402 612.821,586.954L612.931,408.698C590.778,409.021 568.622,409.089 546.468,408.904C536.672,408.883 521.123,408.39 511.797,409.269C475.659,416.788 449.991,444.273 449.425,481.946C448.881,518.105 449.176,554.27 449.203,590.435L449.222,794.84L449.201,1423.61L449.211,1709.74L449.198,1779.59C449.171,1794.56 447.955,1815.85 451.143,1830.45C455.514,1850.49 470.49,1868.81 487.728,1879.57C513.361,1895.56 531.646,1890.85 559.923,1891.42C618.068,1892.59 676.299,1891.61 734.5,1891.37L1138,1891.35L1393.48,1891.58L1476.59,1891.48C1495.92,1891.49 1523.49,1893.4 1541.08,1888.9C1562.52,1883.6 1580.89,1869.82 1591.97,1850.71C1604.07,1830.25 1603.36,1814.13 1603.21,1791.24L1603.23,879.649L1603.28,608.489L1603.35,523.937C1603.38,487.866 1608.35,456.946 1580.29,429.638C1555.84,405.851 1530.79,408.406 1498.97,408.834C1480.32,408.92 1460.43,409.206 1441.82,409.01L1442.09,586.967ZM754.946,443.866C783.658,443.255 815.572,443.997 844.538,444.004L1034.5,444.015L1299.37,444.025L1299.18,408.965L1177.39,408.932C1163.36,408.946 1129.78,408.124 1116.67,409.55C1117.45,375.288 1116.87,339.094 1117.01,304.704C1117.09,283.582 1118.47,240.407 1114.24,222.104C1110.69,206.37 1102.85,191.925 1091.6,180.369C1074.8,163.013 1046.77,151.266 1022.5,153.423C995.075,155.417 977.345,163.914 958.596,184.361C929.501,216.092 936.194,263.287 936.158,303.896L936.125,409.097C917.046,408.696 757.896,408.243 755.519,410.214C755.034,420.809 754.608,433.201 754.946,443.866Z" style="fill:rgb(255,252,240);fill-rule:nonzero;"/>
    </g>
    <g transform="matrix(0.432617,0,0,0.432617,-4.91829e-14,-4.91829e-14)">
        <path d="M672.757,1197.6C693.299,1195.7 732.538,1196.8 754.523,1196.82L905.303,1196.81L1386.88,1197.05C1386.8,1244.49 1386.79,1291.92 1387.05,1339.36C1386.69,1339.82 1386.34,1340.28 1385.98,1340.74L1381.25,1340.87C1306.5,1341.68 1230.35,1340.96 1155.48,1340.96L665.965,1340.98L665.926,1251.61C665.899,1235.54 665.314,1214.82 666.308,1199.11C668.276,1197.22 669.193,1197.85 672.757,1197.6Z" style="fill:rgb(255,252,240);fill-rule:nonzero;"/>
    </g>
    <g transform="matrix(0.432617,0,0,0.432617,-4.91829e-14,-4.91829e-14)">
        <path d="M668.059,1437.31C695.15,1435.97 727.836,1436.85 755.295,1436.93L903.656,1437.06L1384.92,1437.07C1384.93,1452.43 1386.2,1574.98 1383.98,1578.7L1380.93,1578.36C1347.94,1576.96 1314.57,1580.1 1281.31,1578.01C1268.98,1577.24 1252.44,1578.82 1239.33,1578.75L853.471,1578.03L727.724,1578.08C709.953,1577.97 685.097,1578.56 667.905,1577.12L668.059,1437.31Z" style="fill:rgb(255,252,240);fill-rule:nonzero;"/>
    </g>
    <g transform="matrix(0.432617,0,0,0.432617,-4.91829e-14,-4.91829e-14)">
        <path d="M1386.49,945.189L1387.62,945.145C1388.64,948.311 1389.2,1076.92 1388.19,1083.9C1378.71,1087.43 1279.86,1085.7 1260.85,1085.69L971.464,1085.05L967.03,1084.9C896.454,1088.24 823.381,1084.14 752.56,1085.7C726.822,1086.27 699.512,1085.97 673.843,1084.99C670.173,1084.97 668.633,1085.73 666.703,1083.87C665.536,1076.02 666.27,1057.59 666.197,1048.62C664.431,1024.62 665.141,970.511 666.058,945.883L1172.47,945.846L1316.47,945.89C1332.41,945.893 1373.05,946.885 1386.49,945.189Z" style="fill:rgb(255,252,240);fill-rule:nonzero;"/>
    </g>
</svg>
